<?xml version="1.0" encoding="UTF-8" standalone="no"?>
<svg
   version="1.1"
   width="52"
   height="50"
   viewBox="0 0 105 100"
   xmlns="http://www.w3.org/2000/svg"
   xmlns:svg="http://www.w3.org/2000/svg">
  <circle
     cx="52.239914"
     cy="48.999996"
     fill="#004d40"
     r="48.999996" />
  <path
     d="m 2.04551,80.232518 v 0 q -0.8182,-0.48865 -1.11366,-1.30685 -0.2841,-0.81821 -0.77275,-1.55686 v 0 -0.25001 q 0,-0.4091 -0.0795,-0.77274 Q 0,75.971048 0,75.652858 v 0 -1.31822 l 0.9773,0.73866 0.15909,-0.0795 0.50001,-0.73865 0.4091,-0.0795 0.31819,-0.4091 q 1.88641,-0.8182 3.06826,-1.35231 1.19321,-0.5341 2.82962,-1.84095 v 0 l 0.15909,-0.0795 q -0.5682,0.73865 -0.8182,1.55686 -0.23864,0.8182 -0.89775,1.46594 v 0 l -0.0796,0.50001 0.32956,0.4091 q 1.71595,-0.6591 4.00009,-3.44326 2.29551,-2.78416 4.75012,-6.70471 2.45461,-3.93192 4.65921,-8.14793 2.21596,-4.20465 3.72736,-7.72746 1.5114,-3.52282 1.9205,-5.39786 v 0 l -0.15909,-0.25001 -0.48865,0.57956 -0.32956,-1.80686 q -0.73865,0.0795 -0.89774,-0.85229 -0.17046,-0.94321 -0.17046,-1.93187 v 0 q 0,-0.8182 -0.0341,-1.43185 -0.0454,-0.61365 -0.29546,-0.61365 v 0 l -0.15909,-0.64775 0.32955,-1.14775 2.86371,-0.5682 v -1.55686 q 0.32955,-1.14775 -0.2841,-2.01141 -0.61365,-0.85229 -1.02275,-1.75004 v 0 q 0,-0.57956 0.64774,-1.68186 0.65911,-1.1023 1.30685,-1.1023 v 0 l 0.4091,0.15909 q 0.50001,1.88641 0.86366,3.76146 0.36365,1.88641 0.5341,3.85237 v 0 h 0.32956 q 0.64774,0 0.8182,0.23864 0.15909,0.25001 0.15909,0.98866 v 0 q 0,2.69325 0.77275,5.31831 0.78411,2.6137 0.78411,5.39786 v 0 q 0,1.06821 0.64774,3.55691 0.65911,2.50006 1.72732,5.15922 1.05684,2.65915 2.3296,4.57965 1.2614,1.92051 2.57961,1.92051 v 0 h 0.89775 q 0.89775,-0.73866 1.71595,-1.35231 0.8182,-0.61365 1.63641,-1.34094 v 0 q 0.89774,-0.8182 0.9432,-1.14776 0.0341,-0.32955 0.2841,-1.39776 v 0 q 0.15909,-0.64774 0.5341,-1.18185 0.36365,-0.5341 0.53411,-1.1023 v 0 q 2.53415,-5.56832 4.29556,-11.73892 1.75004,-6.18197 1.75004,-12.23894 v 0 l -0.48865,-1.14775 q -0.64774,0.32955 -1.3864,0.61365 -0.73865,0.29546 -1.14775,0.9432 v 0 l -0.48865,0.25001 -0.65911,-0.0795 q -1.46594,1.30685 -2.98871,2.4887 -1.5114,1.19321 -2.8978,2.57961 v 0 l -0.4091,-0.1591 q 0.48865,-0.73865 1.71595,-2.21596 1.22731,-1.46595 2.78416,-3.14781 1.55686,-1.68186 2.94326,-3.2728 1.3864,-1.59095 2.12505,-2.65916 v 0 q 0.4091,-0.15909 0.78411,-0.32955 0.36365,-0.1591 0.6932,-0.1591 v 0 q 1.6364,0 2.4546,1.14776 0.81821,1.13639 0.81821,2.6137 v 0 q 0,2.0455 -0.57956,3.93191 -0.5682,1.87505 -0.4091,4.0001 v 0 l -0.31819,0.57956 h -0.4091 l 0.0795,-0.73865 -0.17046,-0.25001 q -0.15909,1.14776 -1.02275,2.62506 -0.85229,1.46595 -0.44319,2.53416 v 0 l -0.65911,0.89775 q 0.17046,0.32955 0.17046,0.8182 v 0 q 0,2.78416 -1.06821,5.44331 -1.06821,2.65916 -2.17051,5.31832 -1.1023,2.65915 -1.1023,5.52286 v 0 q 0,0.5682 0.40911,0.94321 0.4091,0.36364 0.4091,0.9432 v 0 q 0,1.30685 -0.86366,3.1819 -0.85229,1.88641 -2.12505,3.47735 -1.2614,1.60232 -2.4887,2.34097 v 0 l -1.31821,0.0796 q -0.81821,0.0795 -2.00005,-0.2841 -1.18185,-0.37501 -1.84096,-1.11366 v 0 -0.1591 l -0.73865,0.0795 q -1.46595,0.17046 -2.8978,-1.2273 -1.43185,-1.3864 -2.62507,-3.51145 -1.18184,-2.13642 -1.87504,-4.26147 -0.70456,-2.12505 -0.70456,-3.4319 v 0 q 0,-0.0795 0.17045,-0.57956 0.1591,-0.48865 0.23865,-0.64775 v 0 l -0.31819,-0.4091 -0.17046,0.0796 -0.64775,-1.55686 0.40911,-0.97729 -0.81821,-1.14776 h -0.0909 q -0.64774,0 -0.93184,-0.56819 -0.29546,-0.57956 -0.45456,-1.14776 v 0 q -0.32955,0.89775 -1.14775,2.7387 -0.8182,1.84096 -1.7955,3.93192 -0.98866,2.07959 -1.88641,3.79555 -0.89775,1.72731 -1.3864,2.37505 v 0 l 0.0795,0.0795 q -0.4091,0.57956 -0.77275,1.14776 -0.375,0.57956 -0.78411,1.2273 v 0 l 0.0796,0.0795 -0.15909,0.32955 q -0.32956,0.4091 -0.61365,0.8182 -0.2841,0.4091 -0.61366,0.89775 v 0 q -0.89775,1.80686 -2.65915,4.09101 -1.76141,2.29551 -3.96601,4.54557 -2.21596,2.25005 -4.50011,3.93191 -2.29551,1.6705 -4.17056,2.32961 z m 51.21717,-41.89876 v 0 l -0.25001,-0.31819 q 0.0795,-0.25001 0.2841,-0.5341 0.20455,-0.2841 0.37501,-0.45456 v 0 l -0.17046,-0.48865 0.25001,-0.15909 h 0.4091 q -0.0796,0.56819 -0.25001,1.05684 -0.15909,0.48865 -0.64774,0.89775 z m -0.8182,2.86371 v 0 q 0,-0.5682 0.20455,-1.05685 0.20455,-0.48865 0.5341,-0.98866 v 0 l 0.0796,0.4091 q -0.0796,0.50001 -0.2841,0.86366 -0.20455,0.36364 -0.5341,0.77275 z m -14.23899,22.8301 0.25001,0.0795 0.0796,-0.23864 -0.0796,-0.4091 z m -28.63706,6.21606 h -0.5682 l 0.15909,-0.48864 0.25001,0.17045 z m 58.42189,-3.6819 -0.40911,0.32955 -0.8182,-0.5682 -0.73865,-0.0795 -0.73866,-0.32956 -1.05684,0.32956 q -0.65911,-1.39777 -2.13642,-1.22731 v 0 q -2.53415,-1.31821 -4.8183,-3.39781 -2.29551,-2.09096 -3.77282,-4.75011 -1.46594,-2.65916 -1.46594,-5.68196 v 0 q 0,-0.65911 0.23864,-2.09096 0.25001,-1.43186 0.8182,-2.65916 0.57956,-1.2273 1.39776,-1.2273 v 0 q 0.64775,-0.73866 1.84096,-2.25006 1.18185,-1.5114 2.4887,-2.7387 1.31821,-1.2273 2.29551,-1.2273 v 0 q 0.8182,0 0.77274,-0.61366 -0.0341,-0.61365 0.20455,-1.18184 0.25001,-0.57956 1.72732,-0.57956 v 0 q 0.64774,0 1.1023,-0.48865 0.44319,-0.48865 0.5341,-1.06821 v 0 l 0.64775,-0.4091 0.32955,0.25001 q 0.8182,0 1.43185,-0.53411 0.61365,-0.5341 0.94321,-1.18184 v 0 l 0.8182,0.32955 q 2.0455,-0.57956 3.716,-1.88641 1.68186,-1.30685 3.72736,-1.63641 v 0 l 0.65911,-0.56819 q 1.46595,-0.4091 2.94326,-0.73866 1.46594,-0.32955 3.0228,-0.17045 v 0 q 0.89775,-0.31819 1.7614,-0.64775 0.86366,-0.32955 1.84096,-0.32955 v 0 q 2.29551,0 4.62511,0.36364 2.3296,0.37501 4.62512,0.37501 v 0 q 0.56819,0 0.56819,-0.48864 v 0 q 0,-0.32956 -0.0796,-0.61366 -0.0795,-0.29546 -0.17046,-0.45455 v 0 l 0.32956,-0.89775 -0.1591,-0.32956 q 0.73866,0.25001 2.32961,0.65911 1.59094,0.4091 3.06825,0.89775 1.47731,0.48865 1.7955,1.14776 v 0 l -0.31819,1.13639 -1.47731,0.50001 -0.48864,-0.17046 q -0.81821,0.32955 -0.78412,1.30685 0.0455,0.98866 -0.44319,1.14776 v 0 l -0.6591,-0.1591 h -0.0796 l 0.56819,1.05685 -0.0795,0.32955 0.17045,0.32955 -0.17045,0.1591 -0.5682,-0.31819 q -0.32955,0.64774 -0.48865,1.7955 -0.17046,1.14775 -1.06821,1.2273 v 0 q -0.89775,0.89775 -1.9205,2.09096 -1.02275,1.18185 -2.42051,1.34094 v 0 -0.0795 l 0.32955,-1.63641 -0.32955,-0.4091 q 0.65911,-1.6364 1.27276,-3.3069 0.61365,-1.68186 0.9432,-3.39781 v 0 q -1.6364,-0.25001 -2.62506,-1.02275 -0.9773,-0.78411 -2.86371,-0.78411 v 0 q -3.591,0 -7.93201,1.55685 -4.34102,1.55686 -8.63658,4.21602 -4.29556,2.65915 -7.88656,6.13651 -3.60236,3.47736 -5.77286,7.36382 -2.17051,3.88646 -2.17051,7.72746 v 0 q 0,3.44327 2.29551,4.67057 2.28415,1.2273 5.31831,1.2273 v 0 q 3.27281,0 6.46607,-0.78411 3.18189,-0.77274 6.21606,-1.9205 v 0 q 0.8182,0 1.55686,-0.20455 0.72729,-0.20455 1.30685,-0.5341 v 0 -0.1591 l 1.55685,-0.32955 0.4091,0.25 0.23865,-0.25 v -0.32955 l 1.14775,-0.23865 1.06821,-0.8182 0.5682,1.05685 -0.48865,-0.23865 -0.4091,0.8182 0.0795,0.1591 q -2.0455,1.96596 -5.11376,3.76146 -3.06826,1.80686 -6.38652,2.8637 -3.3069,1.06821 -6.25015,0.98866 v 0 z m 25.77336,-25.93246 -0.65911,0.73865 0.25,-1.0682 z m -15.87539,35.02359 v 0 q -0.5682,-0.4091 -0.73866,-1.19321 -0.15909,-0.77275 -0.56819,-1.35231 v 0 q 0.32955,-0.8182 0.32955,-1.6364 0,-0.81821 0.0795,-1.63641 v 0 l 0.8182,0.50002 0.0795,-0.0909 0.56819,-0.8182 0.4091,-0.23864 0.32956,-0.48865 q 1.6364,-1.14775 3.11371,-2.34097 1.46594,-1.18184 2.86371,-2.56824 v 0 h 0.0795 q -0.32955,0.89775 -0.86365,1.87505 -0.52274,0.98866 -1.18185,1.6364 v 0 l -0.25001,0.73865 0.25001,0.25001 q 0.48865,0 1.88641,-1.6364 1.3864,-1.63641 2.94325,-3.88646 1.55686,-2.25006 2.86371,-4.21602 1.30685,-1.96595 1.71595,-2.62506 v 0 q 1.14776,-1.87505 1.84095,-3.92055 0.6932,-2.04551 1.51141,-4.01146 v 0 q -1.7955,-0.1591 -3.55691,-0.65911 -1.76141,-0.48865 -3.55691,-0.48865 v 0 q -0.48864,0 -1.96595,0.25001 -1.47731,0.23864 -3.22736,0.61365 -1.7614,0.36364 -3.19326,0.73865 -1.43185,0.36365 -1.84095,0.61366 v 0 q -0.57956,0.89774 -1.35231,0.97729 -0.77274,0.0795 -1.68186,0.32956 v 0 q -0.23864,0.0795 -1.13639,0.9432 -0.90911,0.85229 -2.01141,2.00005 -1.1023,1.14776 -2.0455,2.09096 -0.94321,0.93184 -1.2614,1.26139 v 0 l 0.0795,0.25001 0.48865,0.32955 1.55685,0.23865 -0.6591,0.6591 q -0.48865,0 -0.9773,-0.17045 -0.48865,-0.1591 -0.89775,-0.31819 v 0 q -0.73865,-0.90912 -0.98866,-1.88641 -0.23864,-0.9773 -0.23864,-2.04551 v 0 q 0,-0.4091 0,-0.77275 0,-0.375 0.0795,-0.78411 v 0 l -0.25,0.0795 -0.23864,-0.0795 -0.17046,-0.48864 q 0.32955,-1.3864 1.6364,-2.29552 1.30685,-0.89774 2.90916,-1.5114 1.59095,-0.61365 2.65916,-0.9432 v 0 l 0.5682,0.25001 0.17045,-0.48865 q 3.591,-0.73866 7.36382,-0.94321 3.76146,-0.20455 7.44337,-0.20455 v 0 q 3.6819,0 6.87517,0.8182 v 0 q 0.56819,-1.55685 0.93184,-2.50006 0.37501,-0.93184 2.42051,-0.93184 v 0 q 0.4091,0 0.89775,0.11364 0.48865,0.125 0.5682,0.5341 v 0 l -1.22731,2.12506 -0.23864,1.0682 q 1.2273,0.32956 2.45461,0.81821 1.2273,0.48864 2.12505,1.38639 v 0 0.25001 l -0.1591,0.0796 q -1.0682,-0.64775 -2.29551,-0.9773 -1.2273,-0.32955 -2.53415,-0.4091 v 0 q -0.17046,0.32955 -0.25001,0.8182 -0.0795,0.48865 -0.48865,0.73866 v 0 l -0.48864,-0.17046 q -1.80687,3.11371 -4.09101,6.92062 -2.29551,3.79555 -4.90921,7.56837 -2.62507,3.76146 -5.48878,6.90926 -2.8637,3.14781 -5.8865,4.95467 z m 12.60258,-20.29596 v 0 l -0.32956,-0.32955 v -0.15909 q 0.65911,-0.4091 1.47731,-0.48865 v 0 q -0.50001,0.56819 -1.14775,0.97729 z m -2.86371,2.37506 -0.57956,0.0796 -0.4091,-0.32955 q 0,-0.48865 0.29546,-0.81821 0.2841,-0.32955 0.77275,-0.15909 v 0 l -0.32955,-0.17046 q 1.0682,-0.15909 1.6364,-0.72729 v 0 h 0.8182 l -1.46594,1.6364 v 0.0795 l -0.32956,-0.0795 z m -1.55685,5.23877 H 85.6612 l 0.25001,-0.50001 0.1591,0.0909 0.0795,0.31819 z"
     fill="#80cbc4"
     id="path1"
     style="stroke-width:0.3791" />
</svg>
